<?xml version="1.0" ?><svg viewBox="0 0 32 32" xmlns="http://www.w3.org/2000/svg"><title/><g data-name="xing media social" id="xing_media_social"><path d="M14.71,13l-2.4-4a2,2,0,0,0-1.72-1H7.05a1.51,1.51,0,0,0-1.31.76,1.49,1.49,0,0,0,0,1.51h0L8,14,4.72,19.75a1.51,1.51,0,0,0,0,1.5A1.49,1.49,0,0,0,6,22H9.58a2,2,0,0,0,1.73-1l3.43-6A2,2,0,0,0,14.71,13ZM9.58,20H6.88l2.86-5a2,2,0,0,0,0-2L7.92,10h2.67L13,14Z"/><path d="M27.44,4.75A1.52,1.52,0,0,0,26.14,4H22.58a2,2,0,0,0-1.74,1L13.41,18a2,2,0,0,0,0,2l4.44,8a2,2,0,0,0,1.75,1h3.56a1.5,1.5,0,0,0,1.31-2.23L20.15,19l3.72-6.51a1,1,0,0,0-1.74-1L18.41,18a2,2,0,0,0,0,2l3.9,7H19.59l-4.44-8L22.58,6h2.7l-.86,1.5a1,1,0,1,0,1.74,1l1.28-2.25A1.5,1.5,0,0,0,27.44,4.75Z"/></g></svg>