<?xml version="1.0" encoding="UTF-8"?>
<svg version="1.1" xmlns="http://www.w3.org/2000/svg" width="512" height="512">
<path d="M0 0 C1.02609375 0.20399414 2.0521875 0.40798828 3.109375 0.61816406 C40.90830967 8.31006813 75.90629601 22.99234892 107 46 C107.88558594 46.65234619 107.88558594 46.65234619 108.7890625 47.31787109 C118.49350769 54.53475062 127.30566441 62.60877895 136 71 C136.94101562 71.89976563 137.88203125 72.79953125 138.8515625 73.7265625 C144.72504639 79.45457311 149.93543947 85.55182242 155 92 C155.79148437 92.98613281 156.58296875 93.97226563 157.3984375 94.98828125 C183.65753868 128.2470482 199.69077165 166.632964 208 208 C208.27336182 209.33683838 208.27336182 209.33683838 208.55224609 210.70068359 C213.87644966 238.14814496 213.57947404 270.62974589 208 298 C207.79600586 299.02609375 207.59201172 300.0521875 207.38183594 301.109375 C199.68993187 338.90830967 185.00765108 373.90629601 162 405 C161.56510254 405.59039062 161.13020508 406.18078125 160.68212891 406.7890625 C153.46524938 416.49350769 145.39122105 425.30566441 137 434 C136.10023438 434.94101562 135.20046875 435.88203125 134.2734375 436.8515625 C128.54542689 442.72504639 122.44817758 447.93543947 116 453 C115.01386719 453.79148437 114.02773438 454.58296875 113.01171875 455.3984375 C79.7529518 481.65753868 41.367036 497.69077165 0 506 C-1.33683838 506.27336182 -1.33683838 506.27336182 -2.70068359 506.55224609 C-30.14814496 511.87644966 -62.62974589 511.57947404 -90 506 C-91.53914063 505.69400879 -91.53914063 505.69400879 -93.109375 505.38183594 C-130.90830967 497.68993187 -165.90629601 483.00765108 -197 460 C-197.59039062 459.56510254 -198.18078125 459.13020508 -198.7890625 458.68212891 C-208.49350769 451.46524938 -217.30566441 443.39122105 -226 435 C-226.94101563 434.10023438 -227.88203125 433.20046875 -228.8515625 432.2734375 C-234.72504639 426.54542689 -239.93543947 420.44817758 -245 414 C-245.79148438 413.01386719 -246.58296875 412.02773438 -247.3984375 411.01171875 C-273.65753868 377.7529518 -289.69077165 339.367036 -298 298 C-298.18224121 297.10877441 -298.36448242 296.21754883 -298.55224609 295.29931641 C-303.87644966 267.85185504 -303.57947404 235.37025411 -298 208 C-297.79600586 206.97390625 -297.59201172 205.9478125 -297.38183594 204.890625 C-289.68993187 167.09169033 -275.00765108 132.09370399 -252 101 C-251.34765381 100.11441406 -251.34765381 100.11441406 -250.68212891 99.2109375 C-243.46524938 89.50649231 -235.39122105 80.69433559 -227 72 C-226.10023438 71.05898437 -225.20046875 70.11796875 -224.2734375 69.1484375 C-218.54542689 63.27495361 -212.44817758 58.06456053 -206 53 C-205.01386719 52.20851562 -204.02773437 51.41703125 -203.01171875 50.6015625 C-169.7529518 24.34246132 -131.367036 8.30922835 -90 0 C-89.10877441 -0.18224121 -88.21754883 -0.36448242 -87.29931641 -0.55224609 C-59.85185504 -5.87644966 -27.37025411 -5.57947404 0 0 Z M-92 32 C-92.84385254 32.18191895 -93.68770508 32.36383789 -94.55712891 32.55126953 C-144.03197521 43.52932882 -191.1016194 72.62755148 -222 113 C-222.43022461 113.55913086 -222.86044922 114.11826172 -223.30371094 114.69433594 C-230.23279478 123.74787983 -236.38198199 133.08354496 -242 143 C-242.3412793 143.59216309 -242.68255859 144.18432617 -243.03417969 144.79443359 C-255.75814245 166.98526816 -263.91725358 191.80201091 -268 217 C-268.17805176 218.06694092 -268.35610352 219.13388184 -268.53955078 220.2331543 C-270.16142693 230.93913121 -270.3979614 241.50181339 -270.375 252.3125 C-270.37478851 253.23386749 -270.37457703 254.15523499 -270.37435913 255.10452271 C-270.33943855 270.39526662 -269.32238169 285.02607758 -266 300 C-265.81808105 300.84385254 -265.63616211 301.68770508 -265.44873047 302.55712891 C-254.47067118 352.03197521 -225.37244852 399.1016194 -185 430 C-184.44086914 430.43022461 -183.88173828 430.86044922 -183.30566406 431.30371094 C-174.25212017 438.23279478 -164.91645504 444.38198199 -155 450 C-154.40783691 450.3412793 -153.81567383 450.68255859 -153.20556641 451.03417969 C-131.01473184 463.75814245 -106.19798909 471.91725358 -81 476 C-79.93305908 476.17805176 -78.86611816 476.35610352 -77.7668457 476.53955078 C-67.06086879 478.16142693 -56.49818661 478.3979614 -45.6875 478.375 C-44.76613251 478.37478851 -43.84476501 478.37457703 -42.89547729 478.37435913 C-27.60473338 478.33943855 -12.97392242 477.32238169 2 474 C2.84385254 473.81808105 3.68770508 473.63616211 4.55712891 473.44873047 C54.03197521 462.47067118 101.1016194 433.37244852 132 393 C132.43022461 392.44086914 132.86044922 391.88173828 133.30371094 391.30566406 C140.23279478 382.25212017 146.38198199 372.91645504 152 363 C152.3412793 362.40783691 152.68255859 361.81567383 153.03417969 361.20556641 C165.75814245 339.01473184 173.91725358 314.19798909 178 289 C178.26707764 287.39958862 178.26707764 287.39958862 178.53955078 285.7668457 C180.16142693 275.06086879 180.3979614 264.49818661 180.375 253.6875 C180.37468277 252.30544876 180.37468277 252.30544876 180.37435913 250.89547729 C180.33943855 235.60473338 179.32238169 220.97392242 176 206 C175.81808105 205.15614746 175.63616211 204.31229492 175.44873047 203.44287109 C164.47067118 153.96802479 135.37244852 106.8983806 95 76 C94.44086914 75.56977539 93.88173828 75.13955078 93.30566406 74.69628906 C84.25212017 67.76720522 74.91645504 61.61801801 65 56 C64.40783691 55.6587207 63.81567383 55.31744141 63.20556641 54.96582031 C41.01473184 42.24185755 16.19798909 34.08274642 -9 30 C-10.60041138 29.73292236 -10.60041138 29.73292236 -12.2331543 29.46044922 C-22.93913121 27.83857307 -33.50181339 27.6020386 -44.3125 27.625 C-45.69455124 27.62531723 -45.69455124 27.62531723 -47.10452271 27.62564087 C-62.39526662 27.66056145 -77.02607758 28.67761831 -92 32 Z " fill="#ffffff" transform="translate(301,3)"/>
</svg>
