<?xml version="1.0" encoding="UTF-8"?>
<svg version="1.1" xmlns="http://www.w3.org/2000/svg" width="512" height="512">
<path d="M0 0 C6.06920939 4.16947962 11.26534753 8.98426979 16.44091797 14.20040894 C17.65786079 15.41478848 17.65786079 15.41478848 18.89938831 16.65370095 C21.60175693 19.35278975 24.29694078 22.05893757 26.9921875 24.76513672 C28.93324236 26.70787171 30.87580872 28.6490928 32.8183136 30.59037781 C36.99196351 34.762982 41.16195299 38.93921521 45.32943726 43.11797714 C51.35482952 49.15966409 57.38577538 55.19578233 63.41806543 61.2305813 C73.20629538 71.02318213 82.9900561 80.82023548 92.77099609 90.62011719 C102.26896987 100.13646548 111.76905423 109.65069864 121.27197266 119.16210938 C121.858309 119.74897116 122.44464534 120.33583295 123.04874945 120.94047843 C125.99041194 123.8847511 128.93211584 126.8289824 131.87384033 129.77319312 C156.25565063 154.17571703 180.63020332 178.58547871 205 203 C208.08133132 201.62669316 210.18494176 200.06166221 212.55929089 197.67563152 C213.25141711 196.9850206 213.94354334 196.29440967 214.65664309 195.58287114 C215.78556907 194.44111392 215.78556907 194.44111392 216.93730164 193.27629089 C217.74291261 192.46956651 218.54852358 191.66284212 219.37854701 190.83167154 C222.0861448 188.11798511 224.78652524 185.39722709 227.48706055 182.67651367 C229.4227345 180.73259217 231.35995622 178.790216 233.29716492 176.8478241 C237.47332738 172.65906163 241.64602851 168.46687683 245.8166256 164.27257347 C251.85439547 158.20084728 257.89958647 152.13655191 263.94700465 146.07443694 C273.76847409 136.22906846 283.58693656 126.38070825 293.40209961 116.52905273 C293.98961853 115.93935356 294.57713746 115.3496544 295.18245999 114.74208555 C303.51413838 106.37920754 311.84281524 98.01334664 320.17027835 89.64627144 C320.75628132 89.05748185 321.34228429 88.46869225 321.94604492 87.86206055 C322.53133052 87.27398789 323.11661613 86.68591522 323.71963765 86.08002218 C333.48826152 76.26528489 343.26463397 66.45830821 353.04735976 56.65762693 C359.07844465 50.61485091 365.10294079 44.56565153 371.11906306 38.50797806 C375.24536308 34.35420318 379.37890658 30.20772937 383.51815905 26.06686183 C385.90418752 23.67942916 388.2856389 21.28786188 390.66065216 18.88944244 C393.24050725 16.28515408 395.83248703 13.69355094 398.42778015 11.10466003 C399.53997572 9.97294106 399.53997572 9.97294106 400.67463988 8.81835908 C408.35381502 1.21248163 417.1126541 -4.23742427 428.1875 -4.375 C437.23930085 -4.22018015 446.42865917 -1.50830638 453 5 C461.18169094 14.98869017 462.87107911 23.47911325 462.1953125 36.03710938 C461.09405247 47.10477269 451.25126172 56.04720294 443.79959106 63.44091797 C442.58521152 64.65786079 442.58521152 64.65786079 441.34629905 65.89938831 C438.64721025 68.60175693 435.94106243 71.29694078 433.23486328 73.9921875 C431.29212829 75.93324236 429.3509072 77.87580872 427.40962219 79.8183136 C423.237018 83.99196351 419.06078479 88.16195299 414.88202286 92.32943726 C408.84033591 98.35482952 402.80421767 104.38577538 396.7694187 110.41806543 C386.97681787 120.20629538 377.17976452 129.9900561 367.37988281 139.77099609 C357.86353452 149.26896987 348.34930136 158.76905423 338.83789062 168.27197266 C338.25102884 168.858309 337.66416705 169.44464534 337.05952157 170.04874945 C334.1152489 172.99041194 331.1710176 175.93211584 328.22680688 178.87384033 C303.82428297 203.25565063 279.41452129 227.63020332 255 252 C259.45239435 257.33523764 264.15771505 262.28660138 269.09083557 267.17744446 C270.28767272 268.3702715 270.28767272 268.3702715 271.50868839 269.58719605 C274.17082657 272.23930976 276.83653507 274.88780565 279.50219727 277.53637695 C281.41638065 279.44208892 283.33034522 281.34801795 285.24398804 283.25427246 C288.8273583 286.82328465 292.4116766 290.39134025 295.99712037 293.95826938 C303.04320476 300.9679896 310.08301294 307.9839829 317.12059021 315.00224304 C318.23050706 316.10904961 319.3404276 317.21585247 320.45035177 318.32265168 C322.13208959 319.99966402 323.81382378 321.67667999 325.49554323 323.35371074 C331.82663864 329.66710458 338.15842682 335.97980315 344.4909668 342.29174805 C345.06943212 342.86833631 345.64789744 343.44492458 346.24389201 344.03898522 C355.62064189 353.38483683 365.00473931 362.72328103 374.39110363 372.05947516 C384.04066054 381.65789331 393.68060343 391.2658938 403.31215328 400.88238114 C409.24643666 406.80671528 415.18827476 412.72325917 421.14014959 418.62992074 C425.21952282 422.67966423 429.28963797 426.73856192 433.35268158 430.80468789 C435.69437687 433.14759789 438.04112506 435.4847619 440.3965168 437.81394768 C442.95481152 440.34503961 445.49712088 442.89120579 448.03614807 445.44160461 C448.77622606 446.16643628 449.51630406 446.89126794 450.27880865 447.63806421 C458.77947072 456.2545276 462.36230695 465.23244648 462.45532227 477.23779297 C462.26398075 486.25654689 458.76541324 493.26482071 452.75 499.9375 C451.536889 501.00190707 450.28515838 502.02379888 449 503 C448.35160156 503.5053125 447.70320313 504.010625 447.03515625 504.53125 C438.82778436 509.72396332 428.33641532 509.16245521 419 508 C403.89342904 504.10213169 390.8329941 485.96870529 380.23974609 475.35327148 C378.3468841 473.4601271 376.4538242 471.56718256 374.56051636 469.67448425 C370.50040279 465.61489242 366.44210912 461.55348879 362.38508224 457.4908123 C356.51946014 451.6170274 350.65104472 445.74603968 344.7819664 439.87570847 C335.2574694 430.34902843 325.7352029 420.82012219 316.21435547 411.28979492 C306.97139374 402.03763968 297.72737151 392.78654612 288.48193359 383.53686523 C287.62561972 382.68015728 287.62561972 382.68015728 286.75200658 381.80614208 C283.88778849 378.94061887 281.02354968 376.07511637 278.15930057 373.20962417 C254.43631954 349.47629383 230.7169654 325.73934182 207 302 C203.92788644 303.37030026 201.82669982 304.92665902 199.4591198 307.30595779 C198.77109366 307.99246863 198.08306753 308.67897946 197.37419212 309.38629365 C196.25212574 310.52119127 196.25212574 310.52119127 195.10739136 311.67901611 C194.3065695 312.48095138 193.50574764 313.28288665 192.68065846 314.10912299 C189.98921393 316.80665602 187.30498728 319.51126027 184.62060547 322.21582031 C182.69640621 324.14826727 180.77065906 326.0791688 178.84492493 328.01008606 C174.69331965 332.17429161 170.5451759 336.34191946 166.39913559 340.51166534 C160.39578573 346.5489764 154.3850107 352.57885254 148.37200917 358.60654923 C138.60492811 368.39753021 128.84085324 378.19150207 119.08007812 387.98876953 C118.49581213 388.57521578 117.91154613 389.16166202 117.3095751 389.76587936 C109.02635318 398.0802925 100.74613641 406.39769201 92.4671389 414.71631131 C91.88469205 415.30154479 91.3022452 415.88677827 90.70214844 416.48974609 C89.82954863 417.36652649 89.82954863 417.36652649 88.93932055 418.26101962 C79.2260716 428.02040019 69.50505935 437.77200536 59.77769578 447.51731753 C53.78192612 453.52477177 47.7927397 459.53864263 41.81194885 465.56101003 C37.7085471 469.69191035 33.59787897 473.81548636 29.48151211 477.933467 C27.10953528 480.30684648 24.74212358 482.68434571 22.3811779 485.06872749 C19.81483228 487.65955196 17.23631327 490.23764086 14.6545105 492.81304932 C13.91985058 493.56072484 13.18519066 494.30840037 12.42826831 495.07873273 C2.65142998 504.76205327 -5.78266897 508.34432101 -19.30761719 508.3828125 C-28.70296616 508.2204154 -34.34235113 505.61347579 -41.3125 499.375 C-48.4859471 491.53222517 -50.72807716 483.62148696 -50.51733398 473.20507812 C-49.52534889 453.72292685 -31.05663402 440.91645828 -18.16967773 428.05615234 C-16.25655002 426.14386583 -14.34418029 424.23082195 -12.43177795 422.31781006 C-8.32962431 418.21513464 -4.22565859 414.11427932 -0.12042046 410.0146904 C5.81490234 404.08752983 11.74742851 398.15757648 17.67929792 392.22696002 C27.30580659 382.60263447 36.93454156 372.98053948 46.56469727 363.35986328 C55.9138576 354.01989623 65.26195644 344.67886884 74.60864258 335.33642578 C75.18575521 334.75957587 75.76286784 334.18272597 76.35746873 333.58839576 C79.25296009 330.69420953 82.14843073 327.80000258 85.04389107 324.90578532 C109.02604978 300.93397619 133.01183018 276.96579391 157 253 C152.55649188 247.67774497 147.86471116 242.73141687 142.9471283 237.84706116 C142.15332042 237.05451555 141.35951254 236.26196995 140.54164988 235.44540781 C137.89333257 232.8024484 135.24145409 230.16309159 132.58959961 227.52368164 C130.68528346 225.62456123 128.7811784 223.72523157 126.87736511 221.8256073 C122.78316415 217.74109094 118.68729485 213.65825394 114.59043694 209.57640266 C108.11166442 203.12106807 101.63813353 196.66049101 95.16542053 190.19908142 C92.94786682 187.98552851 90.73027917 185.77200961 88.51268101 183.55850124 C87.68154114 182.72889022 87.68154114 182.72889022 86.83361058 181.88251938 C80.53537634 175.59601299 74.23606589 169.3105855 67.9362793 163.02563477 C67.36080459 162.45151249 66.78532989 161.87739022 66.19241656 161.28587031 C56.86138799 151.97703464 47.52652754 142.67204884 38.19070178 133.36802465 C28.59458292 123.80431387 19.0042455 114.23483106 9.41881377 104.66040891 C3.51203035 98.76083986 -2.39943632 92.86604355 -8.31705415 86.97734176 C-12.37195457 82.94146429 -16.42135659 78.900124 -20.46651179 74.85447914 C-22.79850804 72.52254579 -25.13367846 70.19395648 -27.47389221 67.87026596 C-30.01429942 65.34704908 -32.54525572 62.81470851 -35.07411194 60.27992249 C-35.81029898 59.55315609 -36.54648603 58.82638969 -37.30498177 58.07760006 C-46.50515831 48.80516866 -50.40830501 40.42549585 -50.36791992 27.40478516 C-50.23352583 21.50800549 -49.22417303 17.0165587 -46 12 C-45.649375 11.37996094 -45.29875 10.75992187 -44.9375 10.12109375 C-40.61757544 3.17621502 -33.26861138 -1.2666089 -25.51171875 -3.52734375 C-16.52198457 -5.21903556 -7.98080302 -4.64202228 0 0 Z " fill="#F44335" transform="translate(50,4)"/>
</svg>
